<mxfile host="app.diagrams.net" modified="2022-08-19T22:03:25.604Z" agent="5.0 (Windows NT 10.0; Win64; x64) AppleWebKit/537.36 (KHTML, like Gecko) Chrome/103.0.0.0 Safari/537.36" etag="zUvx4yK8t67lZxlBdly6" version="17.4.6" type="github">
  <diagram id="mkHApkB3Jk-5v1ILW662" name="Page-1">
    <mxGraphModel dx="1422" dy="762" grid="1" gridSize="10" guides="1" tooltips="1" connect="1" arrows="1" fold="1" page="1" pageScale="1" pageWidth="850" pageHeight="1100" math="0" shadow="0">
      <root>
        <mxCell id="0" />
        <mxCell id="1" parent="0" />
        <mxCell id="oVZjPZo_PoNDLTfFsXeY-1" value="" style="rounded=0;whiteSpace=wrap;html=1;" vertex="1" parent="1">
          <mxGeometry x="40" y="40" width="600" height="140" as="geometry" />
        </mxCell>
        <mxCell id="oVZjPZo_PoNDLTfFsXeY-2" value="File Header (100 words)" style="text;html=1;strokeColor=none;fillColor=none;align=center;verticalAlign=middle;whiteSpace=wrap;rounded=0;" vertex="1" parent="1">
          <mxGeometry x="90" y="10" width="140" height="30" as="geometry" />
        </mxCell>
        <mxCell id="oVZjPZo_PoNDLTfFsXeY-3" value="ZDSS" style="text;html=1;strokeColor=none;fillColor=none;align=center;verticalAlign=middle;whiteSpace=wrap;rounded=0;" vertex="1" parent="1">
          <mxGeometry x="36" y="38" width="60" height="30" as="geometry" />
        </mxCell>
        <mxCell id="oVZjPZo_PoNDLTfFsXeY-4" value="fileSize=2Mb" style="text;html=1;strokeColor=none;fillColor=none;align=center;verticalAlign=middle;whiteSpace=wrap;rounded=0;" vertex="1" parent="1">
          <mxGeometry x="120" y="80" width="60" height="30" as="geometry" />
        </mxCell>
        <mxCell id="oVZjPZo_PoNDLTfFsXeY-5" value="hashTable Address=&amp;nbsp;178&amp;nbsp;" style="text;html=1;strokeColor=none;fillColor=none;align=center;verticalAlign=middle;whiteSpace=wrap;rounded=0;" vertex="1" parent="1">
          <mxGeometry y="100" width="320" height="30" as="geometry" />
        </mxCell>
        <mxCell id="oVZjPZo_PoNDLTfFsXeY-6" value="" style="rounded=0;whiteSpace=wrap;html=1;" vertex="1" parent="1">
          <mxGeometry x="40" y="235" width="604" height="80" as="geometry" />
        </mxCell>
        <mxCell id="oVZjPZo_PoNDLTfFsXeY-7" value="Record&amp;nbsp;Address Info - addresses and sizes of record data" style="text;html=1;strokeColor=none;fillColor=none;align=center;verticalAlign=middle;whiteSpace=wrap;rounded=0;" vertex="1" parent="1">
          <mxGeometry x="40" y="440" width="400" height="30" as="geometry" />
        </mxCell>
        <mxCell id="oVZjPZo_PoNDLTfFsXeY-8" value="long long array of bin addresses fileHash= [0,0,0, ....., 9372,....]&amp;nbsp; (size = 8192)&lt;br&gt;binAddress = fileHash[5228]&amp;nbsp; =&amp;nbsp;9372" style="text;html=1;strokeColor=none;fillColor=none;align=left;verticalAlign=middle;whiteSpace=wrap;rounded=0;" vertex="1" parent="1">
          <mxGeometry x="50" y="260" width="470" height="30" as="geometry" />
        </mxCell>
        <mxCell id="oVZjPZo_PoNDLTfFsXeY-11" value="" style="rounded=0;whiteSpace=wrap;html=1;align=left;" vertex="1" parent="1">
          <mxGeometry x="40" y="360" width="520" height="60" as="geometry" />
        </mxCell>
        <mxCell id="oVZjPZo_PoNDLTfFsXeY-9" value="bin items&lt;br&gt;pathHash, Status,NumChars,Size,infoAddress=15773,....&amp;nbsp; &amp;nbsp;(multiple rows for each pathHash2,....&lt;br&gt;pathHash3," style="text;html=1;strokeColor=none;fillColor=none;align=left;verticalAlign=middle;whiteSpace=wrap;rounded=0;" vertex="1" parent="1">
          <mxGeometry x="60" y="370" width="450" height="40" as="geometry" />
        </mxCell>
        <mxCell id="oVZjPZo_PoNDLTfFsXeY-12" value="example:&lt;br&gt;&lt;div&gt;path =/testing/timeseries/Flow/01Jan1900/1Day/series0/&lt;/div&gt;&lt;div style=&quot;text-align: left&quot;&gt;TableHashFunction(path) = 5228&lt;/div&gt;&lt;div style=&quot;text-align: left&quot;&gt;PathHashFunction(path) = -3117397283474765467&lt;br&gt;&lt;/div&gt;" style="rounded=0;whiteSpace=wrap;html=1;" vertex="1" parent="1">
          <mxGeometry x="670" y="65" width="360" height="145" as="geometry" />
        </mxCell>
        <mxCell id="oVZjPZo_PoNDLTfFsXeY-13" value="pathName bin" style="text;html=1;strokeColor=none;fillColor=none;align=center;verticalAlign=middle;whiteSpace=wrap;rounded=0;" vertex="1" parent="1">
          <mxGeometry x="36" y="330" width="140" height="30" as="geometry" />
        </mxCell>
        <mxCell id="oVZjPZo_PoNDLTfFsXeY-14" value="Text" style="text;html=1;strokeColor=none;fillColor=none;align=center;verticalAlign=middle;whiteSpace=wrap;rounded=0;" vertex="1" parent="1">
          <mxGeometry x="390" y="270" width="60" height="30" as="geometry" />
        </mxCell>
        <mxCell id="oVZjPZo_PoNDLTfFsXeY-16" value="" style="rounded=0;whiteSpace=wrap;html=1;" vertex="1" parent="1">
          <mxGeometry x="40" y="470" width="590" height="63" as="geometry" />
        </mxCell>
        <mxCell id="oVZjPZo_PoNDLTfFsXeY-18" value="File Hash Table" style="text;html=1;strokeColor=none;fillColor=none;align=center;verticalAlign=middle;whiteSpace=wrap;rounded=0;" vertex="1" parent="1">
          <mxGeometry x="29" y="213" width="140" height="30" as="geometry" />
        </mxCell>
        <mxCell id="oVZjPZo_PoNDLTfFsXeY-19" value="" style="endArrow=classic;html=1;rounded=0;entryX=0.879;entryY=0.967;entryDx=0;entryDy=0;exitX=0.387;exitY=1.133;exitDx=0;exitDy=0;exitPerimeter=0;entryPerimeter=0;" edge="1" parent="1" source="oVZjPZo_PoNDLTfFsXeY-8" target="oVZjPZo_PoNDLTfFsXeY-13">
          <mxGeometry width="50" height="50" relative="1" as="geometry">
            <mxPoint x="400" y="290" as="sourcePoint" />
            <mxPoint x="450" y="240" as="targetPoint" />
          </mxGeometry>
        </mxCell>
        <mxCell id="oVZjPZo_PoNDLTfFsXeY-20" value="" style="endArrow=classic;html=1;rounded=0;exitX=0.387;exitY=1.133;exitDx=0;exitDy=0;exitPerimeter=0;" edge="1" parent="1" target="oVZjPZo_PoNDLTfFsXeY-7">
          <mxGeometry width="50" height="50" relative="1" as="geometry">
            <mxPoint x="320.0000000000001" y="390" as="sourcePoint" />
            <mxPoint x="247.16999999999996" y="455.02" as="targetPoint" />
          </mxGeometry>
        </mxCell>
        <mxCell id="oVZjPZo_PoNDLTfFsXeY-21" value="Status,InternalHeaderAddress, ..., UserHeaderAddress,&amp;nbsp;Values1Address,&amp;nbsp;Values2Address, .. PathName" style="text;html=1;strokeColor=none;fillColor=none;align=left;verticalAlign=middle;whiteSpace=wrap;rounded=0;" vertex="1" parent="1">
          <mxGeometry x="60" y="480" width="580" height="30" as="geometry" />
        </mxCell>
      </root>
    </mxGraphModel>
  </diagram>
</mxfile>
